<svg width="50" height="50" fill="#ffffff" viewBox="0 0 24 24" xmlns="http://www.w3.org/2000/svg">
  <path d="M15.6 14.374c.63.746.959 1.56.945 2.496-.019 1.29-.681 2.262-1.613 3.06-1.085.928-2.397 1.32-3.8 1.43a8.59 8.59 0 0 1-.924.003 1.268 1.268 0 0 1-.39-.069c-.503-.182-.58-.555-.18-.906.391-.344.814-.654 1.192-1.013.289-.277.551-.581.782-.908.245-.344.266-.742.115-1.2-.242.113-.474.203-.687.325-.446.255-.697.245-1.08-.091-.372-.327-.738-.66-1.108-.99a1.77 1.77 0 0 0-.172-.118c-.224.207-.433.414-.657.603-.296.25-.59.257-.782.035-.18-.207-.151-.482.11-.749.184-.19.395-.353.552-.49-.42-.513-.843-.933-1.147-1.426-.356-.576.084-1.09.358-1.653-.524-.033-.955.063-1.301.328-.33.268-.629.574-.888.911-.251.31-.447.666-.67.999-.21.314-.426.645-.87.599-.306-.032-.733-.584-.762-1-.064-.946.056-1.867.498-2.723.81-1.567 2.086-2.586 3.748-3.131.696-.229 1.398-.156 2.108.06.04-.045.085-.09.122-.142 1.918-2.68 4.532-4.382 7.627-5.392 1.054-.344 2.12-.657 3.245-.686.28-.007.561-.029.842-.025.366.004.548.133.533.49a15.645 15.645 0 0 1-.194 2.065c-.451 2.569-1.687 4.772-3.291 6.782-.625.782-1.328 1.501-1.996 2.248-.08.088-.163.172-.264.278Zm-6.243 1.193c.418.332.722.592 1.05.82a.412.412 0 0 0 .355-.002c.518-.275 1.049-.538 1.531-.869 1.72-1.177 3.276-2.545 4.583-4.173.71-.883 1.359-1.814 2.048-2.742L14.928 4.89c-.132.061-.26.13-.385.205-.78.518-1.575 1.015-2.327 1.569-.844.62-1.558 1.379-2.196 2.215-1.057 1.387-1.68 3.006-2.462 4.54-.078.152-.034.46.076.596.287.356.643.656 1.028 1.035.603-.625 1.133-1.209 1.703-1.753.328-.294.68-.561 1.051-.798.196-.133.445-.178.624.026.181.207.025.41-.102.575-.15.188-.314.365-.489.53a45.61 45.61 0 0 1-1.096 1.06c-.313.29-.64.565-.996.877ZM20.59 3.293c-1.71.003-3.22.639-4.759 1.156l-.027.107 3.54 2.984c.606-.962 1.07-2.546 1.246-4.247Zm-8.47 16.56c1.44-.27 2.556-1 3.183-2.34.417-.893.126-1.727-.367-2.52l-2.415 1.845c.624 1.102.305 2.073-.401 3.016ZM8.534 9.429c-2.058-.338-4.904 2.446-4.72 4.358.84-1.328 1.92-2.128 3.543-1.84l1.177-2.518Z"></path>
  <path d="M4.36 19.724c.06-.11.126-.311.257-.45a61.117 61.117 0 0 1 1.515-1.545c.15-.15.34-.244.535-.084.206.168.116.369-.005.535-.418.57-.837 1.141-1.279 1.694-.131.15-.298.266-.486.336-.278.11-.547-.11-.537-.486Z"></path>
  <path d="M8.937 17.678c.297.008.512.275.38.482a14.48 14.48 0 0 1-1.104 1.494c-.143.171-.4.147-.582-.017a.444.444 0 0 1-.083-.585c.11-.181.239-.35.387-.502.219-.233.45-.455.687-.669a2.01 2.01 0 0 1 .315-.203Z"></path>
  <path d="M6.29 15.418a2.48 2.48 0 0 1-.2.359c-.373.466-.752.927-1.136 1.383a1.008 1.008 0 0 1-.25.195c-.192.119-.387.118-.542-.056-.16-.181-.124-.382.036-.537a66.202 66.202 0 0 1 1.598-1.504c.07-.064.222-.074.325-.055.062.011.105.129.169.215Z"></path>
  <path d="M14.751 6.886c.522-.007.924.206 1.328.543.419.348.732.72.886 1.24.357 1.202-.349 2.087-1.493 2.249-.928.13-1.715-.251-2.287-.977-.49-.622-.504-1.346-.164-2.042.343-.702.96-1.006 1.73-1.013ZM13.65 8.812c.133.231.23.526.43.706.206.187.507.28.778.383.357.135.665-.008.908-.26.234-.244.243-.55.128-.863-.18-.492-.601-.739-1.024-.961-.38-.2-.74-.08-.956.294-.11.19-.16.416-.264.7Z"></path>
</svg>